HIERARCHY
ROOT Pelvis
{
	OFFSET 0.000000 0.000000 0.000000
	CHANNELS 6 Xposition Yposition Zposition Xrotation Yrotation Zrotation
	JOINT LeftUpLeg_virtual
	{
		OFFSET 0.000000 0.000000 0.000000
		CHANNELS 3 Xrotation Yrotation Zrotation
		JOINT LeftUpLeg
		{
			OFFSET 18.735201 -5.666702 -4.541200
			CHANNELS 3 Xrotation Yrotation Zrotation
			JOINT LeftLeg
			{
				OFFSET -0.021200 -31.938179 0.493100
				CHANNELS 3 Xrotation Yrotation Zrotation
				JOINT LeftFoot
				{
					OFFSET 0.021200 -31.938179 -4.336299
					CHANNELS 3 Xrotation Yrotation Zrotation
					JOINT LeftToeBase
					{
						OFFSET 0.943001 -26.722000 15.023500
						CHANNELS 3 Xrotation Yrotation Zrotation
						End Site
						{
							OFFSET 0 0 0
						}
					}
				}
			}
		}
	}
	JOINT RightUpLeg_virtual
	{
		OFFSET 0.000000 0.000000 0.000000
		CHANNELS 3 Xrotation Yrotation Zrotation
		JOINT RightUpLeg
		{
			OFFSET -18.735201 -5.666702 -4.541200
			CHANNELS 3 Xrotation Yrotation Zrotation
			JOINT RightLeg
			{
				OFFSET 0.018946 -31.938133 0.493100
				CHANNELS 3 Xrotation Yrotation Zrotation
				JOINT RightFoot
				{
					OFFSET -0.018946 -31.938126 -4.336299
					CHANNELS 3 Xrotation Yrotation Zrotation
					JOINT RightToeBase
					{
						OFFSET -0.943001 -26.722004 15.023500
						CHANNELS 3 Xrotation Yrotation Zrotation
						End Site
						{
							OFFSET 0 0 0
						}
					}
				}
			}
		}
	}
	JOINT Hips_virtual
	{
		OFFSET 0.000000 0.000000 0.000000
		CHANNELS 3 Xrotation Yrotation Zrotation
		JOINT Hips
		{
			OFFSET -0.000000 -0.000000 -0.000000
			CHANNELS 3 Xrotation Yrotation Zrotation
			JOINT Spine
			{
				OFFSET 0.000000 10.199997 -0.299500
				CHANNELS 3 Xrotation Yrotation Zrotation
				JOINT Spine1
				{
					OFFSET 0.000000 11.900002 -1.516600
					CHANNELS 3 Xrotation Yrotation Zrotation
					JOINT Spine2
					{
						OFFSET 0.000000 13.600006 -2.842500
						CHANNELS 3 Xrotation Yrotation Zrotation
						JOINT Neck_virtual
						{
							OFFSET 0.000000 0.000000 0.000000
							CHANNELS 3 Xrotation Yrotation Zrotation
							JOINT Neck
							{
								OFFSET 0.000000 9.624100 -2.890100
								CHANNELS 3 Xrotation Yrotation Zrotation
								JOINT Head
								{
									OFFSET 0.000000 14.068802 -1.351900
									CHANNELS 3 Xrotation Yrotation Zrotation
									End Site
									{
										OFFSET 0 0 0
									}
								}
							}
						}
						JOINT LeftShoulder_virtual
						{
							OFFSET 0.000000 0.000000 0.000000
							CHANNELS 3 Xrotation Yrotation Zrotation
							JOINT LeftShoulder
							{
								OFFSET 15.263000 10.923401 -0.547700
								CHANNELS 3 Xrotation Yrotation Zrotation
								JOINT LeftArm
								{
									OFFSET 25.438599 -2.830597 -13.032500
									CHANNELS 3 Xrotation Yrotation Zrotation
									JOINT LeftForeArm
									{
										OFFSET 29.960503 0.000000 0.000000
										CHANNELS 3 Xrotation Yrotation Zrotation
										JOINT LeftHand
										{
											OFFSET 27.849251 0.000000 0.000000
											CHANNELS 3 Xrotation Yrotation Zrotation
											End Site
											{
												OFFSET 0 0 0
											}
										}
									}
								}
							}
						}
						JOINT RightShoulder_virtual
						{
							OFFSET 0.000000 0.000000 0.000000
							CHANNELS 3 Xrotation Yrotation Zrotation
							JOINT RightShoulder
							{
								OFFSET -15.263000 10.923401 -0.547700
								CHANNELS 3 Xrotation Yrotation Zrotation
								JOINT RightArm
								{
									OFFSET -25.438599 -2.830597 -13.032500
									CHANNELS 3 Xrotation Yrotation Zrotation
									JOINT RightForeArm
									{
										OFFSET -29.960503 0.000000 0.000000
										CHANNELS 3 Xrotation Yrotation Zrotation
										JOINT RightHand
										{
											OFFSET -27.849251 0.000000 0.000000
											CHANNELS 3 Xrotation Yrotation Zrotation
											End Site
											{
												OFFSET 0 0 0
											}
										}
									}
								}
							}
						}
					}
				}
			}
		}
	}
}
MOTION
Frames: 11
Frame Time: 0.03333333
-5.154822 119.065773 9.605743 0.000000 0.000000 0.000000 3.788671 -36.946986 0.654756 -97.123378 -19.122443 20.741524 79.566445 -0.345625 9.765845 18.695293 -4.311009 -4.916440 0.000000 0.000000 0.000000 3.575531 -35.860740 -0.472393 -130.517101 -34.099877 -10.081765 113.626419 16.167345 -7.755489 29.662347 7.886758 39.576360 0.000000 0.000000 0.000000 3.462751 -35.386650 0.640333 -0.997868 -0.025504 -0.793638 31.553159 -4.567581 -10.072627 14.495615 1.119694 -2.949304 0.000000 0.000000 0.000000 12.963811 1.263993 -3.686654 -2.524977 4.118191 -2.538747 0.000000 0.000000 0.000000 12.561911 1.400308 -4.243585 10.760622 -10.967173 -0.567068 -64.714369 5.885911 1.485324 44.809169 -25.979946 29.873137 0.000000 0.000000 0.000000 12.551360 1.570402 -3.584632 16.683741 19.495590 -9.718247 -30.643616 -12.275480 -1.907310 -54.300936 49.917925 46.054992 0.000000 0.000000 0.000000 
-5.132271 119.083862 9.665457 0.000000 0.000000 0.000000 3.802033 -36.804307 0.596334 -97.253458 -19.165593 20.638550 79.680550 -0.348209 9.750693 18.940345 -4.269197 -4.886423 0.000000 0.000000 0.000000 3.613674 -35.722788 -0.482471 -130.730613 -34.009581 -10.119914 113.719904 16.208648 -7.815206 29.834912 8.131122 39.658810 0.000000 0.000000 0.000000 3.496043 -35.231181 0.599432 -1.003684 -0.061296 -0.782609 31.602739 -4.578147 -10.068495 14.509962 1.106670 -2.962910 0.000000 0.000000 0.000000 12.966498 1.263438 -3.711672 -2.527693 4.114875 -2.531254 0.000000 0.000000 0.000000 12.522174 1.409052 -4.223383 10.775394 -11.143870 0.088891 -65.371549 4.991091 2.197899 44.821679 -26.244104 30.097700 0.000000 0.000000 0.000000 12.531230 1.558573 -3.618541 16.776464 19.175602 -9.967816 -31.154931 -12.269600 -2.657449 -55.129322 50.403193 46.973414 0.000000 0.000000 0.000000 
-5.087744 119.102676 9.760860 0.000000 0.000000 0.000000 3.818786 -36.514949 0.479546 -97.467530 -19.261886 20.487451 79.909737 -0.410030 9.746674 19.226503 -4.310824 -4.856442 0.000000 0.000000 0.000000 3.639805 -35.455710 -0.557646 -131.119346 -33.850568 -10.135113 114.047507 16.121608 -7.858669 30.125280 8.276177 39.642995 0.000000 0.000000 0.000000 3.541333 -34.944354 0.505624 -1.013321 -0.038260 -0.787798 31.655051 -4.638674 -10.058694 14.543578 1.091404 -2.948560 0.000000 0.000000 0.000000 12.955046 1.268761 -3.705414 -2.533063 4.110020 -2.530287 0.000000 0.000000 0.000000 12.496488 1.416116 -4.185996 10.969017 -11.401834 1.445205 -66.394555 3.277863 2.912631 44.745713 -26.346627 30.149312 0.000000 0.000000 0.000000 12.559926 1.552066 -3.623335 17.074626 18.708510 -10.936863 -32.092091 -12.499286 -3.187936 -56.624898 51.275347 48.503154 0.000000 0.000000 0.000000 
-5.021328 119.128708 9.877670 0.000000 0.000000 0.000000 3.839834 -36.121011 0.319874 -97.719250 -19.400990 20.314494 80.175841 -0.510037 9.757639 19.523256 -4.417027 -4.821077 0.000000 0.000000 0.000000 3.659096 -35.079869 -0.693005 -131.603211 -33.686322 -10.154720 114.496380 15.915104 -7.856857 30.372772 8.227947 39.542581 0.000000 0.000000 0.000000 3.589562 -34.559429 0.364128 -1.028151 0.009354 -0.800033 31.704188 -4.728126 -10.040551 14.596666 1.088873 -2.920536 0.000000 0.000000 0.000000 12.936353 1.282923 -3.681381 -2.536775 4.105471 -2.530596 0.000000 0.000000 0.000000 12.495148 1.422239 -4.148916 11.321687 -11.735323 3.237683 -67.458268 1.097918 3.283665 44.567428 -26.223465 29.999748 0.000000 0.000000 0.000000 12.623070 1.557156 -3.610047 17.509390 18.206914 -12.408843 -33.305208 -12.905026 -3.346766 -58.315062 52.217787 50.168033 0.000000 0.000000 0.000000 
-4.940232 119.167656 10.003017 0.000000 0.000000 0.000000 3.862366 -35.682042 0.132062 -97.970143 -19.559840 20.154112 80.404051 -0.614944 9.775099 19.829195 -4.563100 -4.766938 0.000000 0.000000 0.000000 3.664087 -34.653866 -0.884874 -132.096159 -33.548691 -10.172331 114.952753 15.660222 -7.823779 30.625527 8.115076 39.434203 0.000000 0.000000 0.000000 3.629192 -34.147835 0.178838 -1.030835 0.042958 -0.792539 31.742345 -4.820158 -10.020034 14.658933 1.100901 -2.889866 0.000000 0.000000 0.000000 12.931129 1.308078 -3.646584 -2.536144 4.099629 -2.527206 0.000000 0.000000 0.000000 12.513680 1.431436 -4.118774 11.791756 -12.146393 5.240046 -68.503683 -1.259882 3.107890 44.277176 -25.857749 29.698383 0.000000 0.000000 0.000000 12.724545 1.578577 -3.593381 18.015392 17.792113 -14.105910 -34.725867 -13.285258 -3.247631 -59.777433 52.985285 51.555473 0.000000 0.000000 0.000000 
-4.857538 119.218765 10.133118 0.000000 0.000000 0.000000 3.888741 -35.263625 -0.066835 -98.212950 -19.725347 20.019667 80.565128 -0.697626 9.793834 20.179427 -4.725299 -4.685849 0.000000 0.000000 0.000000 3.661599 -34.241388 -1.109379 -132.578835 -33.448454 -10.189691 115.313073 15.424037 -7.791235 31.021517 8.109386 39.370293 0.000000 0.000000 0.000000 3.657219 -33.775941 -0.027023 -1.017150 0.064667 -0.748674 31.769836 -4.897952 -10.002115 14.718513 1.127292 -2.870868 0.000000 0.000000 0.000000 12.958099 1.340204 -3.616678 -2.530937 4.092164 -2.516574 0.000000 0.000000 0.000000 12.547912 1.456183 -4.104663 12.300352 -12.570716 7.170154 -69.426878 -3.449008 2.417601 43.983058 -25.402833 29.416942 0.000000 0.000000 0.000000 12.846722 1.614168 -3.583907 18.525411 17.564803 -15.755267 -36.187401 -13.359612 -3.001149 -60.532907 53.381623 52.243786 0.000000 0.000000 0.000000 
-4.792923 119.273537 10.268702 0.000000 0.000000 0.000000 3.897964 -34.934143 -0.261224 -98.463037 -19.892504 19.907351 80.711300 -0.745361 9.819930 20.573682 -4.884941 -4.582718 0.000000 0.000000 0.000000 3.655594 -33.915625 -1.324422 -133.022647 -33.391839 -10.184860 115.540983 15.256756 -7.785198 31.574551 8.269103 39.352678 0.000000 0.000000 0.000000 3.667041 -33.499838 -0.223440 -0.983965 0.088583 -0.681276 31.808994 -4.946653 -9.987100 14.791012 1.163032 -2.856889 0.000000 0.000000 0.000000 13.025217 1.373380 -3.599368 -2.521681 4.081076 -2.501147 0.000000 0.000000 0.000000 12.607921 1.488540 -4.099038 12.785137 -12.997843 8.879283 -70.173227 -5.333822 1.382151 43.744138 -25.065486 29.269085 0.000000 0.000000 0.000000 12.963185 1.649855 -3.575873 19.021954 17.567260 -17.149487 -37.472050 -12.851269 -2.650828 -60.394131 53.353456 52.076651 0.000000 0.000000 0.000000 
-4.756334 119.321594 10.387510 0.000000 0.000000 0.000000 3.873080 -34.785402 -0.430864 -98.703856 -20.071626 19.819139 80.884015 -0.764192 9.863731 20.959844 -5.045431 -4.481533 0.000000 0.000000 0.000000 3.642728 -33.761222 -1.499429 -133.371028 -33.401449 -10.153828 115.676658 15.164256 -7.790222 32.115351 8.491654 39.339158 0.000000 0.000000 0.000000 3.655069 -33.386754 -0.379946 -0.957228 0.132149 -0.635645 31.887913 -4.960409 -9.985420 14.881411 1.189210 -2.839520 0.000000 0.000000 0.000000 13.119625 1.402398 -3.588129 -2.514150 4.068819 -2.487021 0.000000 0.000000 0.000000 12.712082 1.518938 -4.091843 13.172592 -13.425054 10.216062 -70.766197 -6.866122 0.159211 43.642569 -24.942936 29.341263 0.000000 0.000000 0.000000 13.066919 1.683537 -3.559331 19.486017 17.831778 -18.121938 -38.414425 -11.577558 -2.093851 -59.455342 52.904255 51.123481 0.000000 0.000000 0.000000 
-4.738053 119.358536 10.473812 0.000000 0.000000 0.000000 3.818826 -34.848465 -0.549846 -98.921992 -20.277349 19.753136 81.091510 -0.762950 9.934050 21.283698 -5.210265 -4.407760 0.000000 0.000000 0.000000 3.607518 -33.808419 -1.620006 -133.611327 -33.472694 -10.122591 115.747446 15.115868 -7.780009 32.442132 8.620382 39.286217 0.000000 0.000000 0.000000 3.623916 -33.458310 -0.472661 -0.935731 0.188043 -0.640355 32.027720 -4.952063 -10.004133 14.979821 1.203725 -2.821159 0.000000 0.000000 0.000000 13.232546 1.421597 -3.579024 -2.507886 4.060934 -2.477821 0.000000 0.000000 0.000000 12.848048 1.541659 -4.084486 13.412199 -13.829649 11.053579 -71.115431 -8.073221 -1.117147 43.695305 -25.094054 29.603184 0.000000 0.000000 0.000000 13.147913 1.711859 -3.539984 19.875511 18.336649 -18.652468 -38.965693 -9.589746 -1.289833 -57.954947 52.145400 49.626566 0.000000 0.000000 0.000000 
-4.736619 119.381790 10.509064 0.000000 0.000000 0.000000 3.747575 -35.096968 -0.602077 -99.114562 -20.514381 19.721475 81.341597 -0.741533 10.021860 21.521125 -5.366382 -4.370411 0.000000 0.000000 0.000000 3.549638 -34.035799 -1.676717 -133.758818 -33.570619 -10.094547 115.792224 15.084917 -7.762674 32.509078 8.615925 39.192254 0.000000 0.000000 0.000000 3.585352 -33.683115 -0.499198 -0.936791 0.233475 -0.666374 32.204728 -4.950600 -10.042298 15.091672 1.199219 -2.806101 0.000000 0.000000 0.000000 13.358198 1.425706 -3.571954 -2.500719 4.060938 -2.475341 0.000000 0.000000 0.000000 12.997088 1.545401 -4.081575 13.513302 -14.255044 11.349596 -71.223341 -8.994884 -2.424946 43.791461 -25.344221 29.888416 0.000000 0.000000 0.000000 13.221557 1.720721 -3.524855 20.159262 19.025284 -18.775080 -39.174458 -7.111932 -0.292258 -56.254418 51.240482 47.888881 0.000000 0.000000 0.000000 
-4.745865 119.396103 10.502617 0.000000 0.000000 0.000000 3.689962 -35.452821 -0.585137 -99.274511 -20.764204 19.731301 81.605393 -0.699072 10.104345 21.679598 -5.499984 -4.372119 0.000000 0.000000 0.000000 3.490633 -34.385870 -1.673536 -133.836737 -33.669178 -10.069476 115.824381 15.076283 -7.763441 32.419209 8.564393 39.076393 0.000000 0.000000 0.000000 3.544626 -33.988579 -0.471721 -0.936063 0.255514 -0.730588 32.391643 -4.976349 -10.093322 15.210725 1.177993 -2.806647 0.000000 0.000000 0.000000 13.487493 1.412765 -3.571447 -2.492306 4.071934 -2.479581 0.000000 0.000000 0.000000 13.156564 1.530676 -4.087062 13.486458 -14.717692 11.094246 -71.072230 -9.669069 -3.718270 43.890177 -25.614219 30.097058 0.000000 0.000000 0.000000 13.302966 1.705461 -3.524423 20.305311 19.803199 -18.566734 -39.120134 -4.408103 0.855766 -54.597349 50.318386 46.095717 0.000000 0.000000 0.000000 
